<svg width="256" height="256" viewBox="0 0 256 256" fill="none" xmlns="http://www.w3.org/2000/svg">
<path d="M8 56C8 47.1634 15.1634 40 24 40H232C240.837 40 248 47.1634 248 56V200C248 208.837 240.837 216 232 216H24C15.1634 216 8 208.837 8 200V56Z" fill="url(#paint0_linear_1928_961)"/>
<path d="M32 60C32 55.5817 35.5817 52 40 52H128C132.418 52 136 55.5817 136 60V116C136 120.418 132.418 124 128 124H40C35.5817 124 32 120.418 32 116V60Z" fill="white"/>
<path d="M76 140C76 135.582 79.5817 132 84 132H172C176.418 132 180 135.582 180 140V196C180 200.418 176.418 204 172 204H84C79.5817 204 76 200.418 76 196V140Z" fill="white"/>
<path d="M152 68C152 63.5817 155.582 60 160 60H216C220.418 60 224 63.5817 224 68V108C224 112.418 220.418 116 216 116H160C155.582 116 152 112.418 152 108V68Z" fill="white"/>
<path d="M220 68C220 70.2091 218.209 72 216 72C213.791 72 212 70.2091 212 68C212 65.7909 213.791 64 216 64C218.209 64 220 65.7909 220 68Z" fill="#229FAD"/>
<path d="M210 68C210 70.2091 208.209 72 206 72C203.791 72 202 70.2091 202 68C202 65.7909 203.791 64 206 64C208.209 64 210 65.7909 210 68Z" fill="#229FAD"/>
<path d="M200 68C200 70.2091 198.209 72 196 72C193.791 72 192 70.2091 192 68C192 65.7909 193.791 64 196 64C198.209 64 200 65.7909 200 68Z" fill="#229FAD"/>
<path d="M132 60C132 62.2091 130.209 64 128 64C125.791 64 124 62.2091 124 60C124 57.7909 125.791 56 128 56C130.209 56 132 57.7909 132 60Z" fill="#229FAD"/>
<path d="M122 60C122 62.2091 120.209 64 118 64C115.791 64 114 62.2091 114 60C114 57.7909 115.791 56 118 56C120.209 56 122 57.7909 122 60Z" fill="#229FAD"/>
<path d="M112 60C112 62.2091 110.209 64 108 64C105.791 64 104 62.2091 104 60C104 57.7909 105.791 56 108 56C110.209 56 112 57.7909 112 60Z" fill="#229FAD"/>
<path d="M176 140C176 142.209 174.209 144 172 144C169.791 144 168 142.209 168 140C168 137.791 169.791 136 172 136C174.209 136 176 137.791 176 140Z" fill="#229FAD"/>
<path d="M166 140C166 142.209 164.209 144 162 144C159.791 144 158 142.209 158 140C158 137.791 159.791 136 162 136C164.209 136 166 137.791 166 140Z" fill="#229FAD"/>
<path d="M156 140C156 142.209 154.209 144 152 144C149.791 144 148 142.209 148 140C148 137.791 149.791 136 152 136C154.209 136 156 137.791 156 140Z" fill="#229FAD"/>
<defs>
<linearGradient id="paint0_linear_1928_961" x1="248" y1="40" x2="6.11676" y2="213.373" gradientUnits="userSpaceOnUse">
<stop stop-color="#49BAC8"/>
<stop offset="1" stop-color="#229FAD"/>
</linearGradient>
</defs>
</svg>
