<svg width="16" height="16" viewBox="0 0 16 16" fill="none" xmlns="http://www.w3.org/2000/svg">
<path d="M8 3.9C8 3.24897 7.78794 3 7.00001 3H1.00006C0.28395 3 7.07539e-05 3.2611 7.07539e-05 3.9C7.07539e-05 4.5389 -8.84424e-05 10.4571 7.07539e-05 11.1C0.00022995 11.7429 0.251219 12 1.00006 12H7.00001C7.72069 12 7.99988 11.7172 8 11.1V3.9Z" fill="#232323"/>
<path d="M16 8.99993C16 8.49996 16 8 15.125 8H9.875C9 8 8.99997 8.5 9 9V11C9 11.5 9 12 9.875 12H15.125C16 12 16 11.5 16 11V9V8.99993Z" fill="#232323"/>
<path d="M16 3.99993C16 3.49996 16 3 15.125 3H9.875C9 3 8.99997 3.5 9 4V6C9 6.5 9 7 9.875 7H15.125C16 7 16 6.5 16 6V4V3.99993Z" fill="#232323"/>
</svg>
