<svg width="16" height="16" viewBox="0 0 16 16" fill="none" xmlns="http://www.w3.org/2000/svg">
<g id="applet-date-time-symbolic">
<g id="Group">
<path id="Vector" d="M3 1C1.892 1 1 1.892 1 3V13C1 14.108 1.892 15 3 15H13C14.108 15 15 14.108 15 13V3C15 1.892 14.108 1 13 1H3ZM3 5H13V13H3V5Z" fill="#232323"/>
<path id="Vector_2" d="M6 4.5C6 4.22386 5.77614 4 5.5 4C5.22386 4 5 4.22386 5 4.5V13.25C5 13.5261 5.22386 13.75 5.5 13.75C5.77614 13.75 6 13.5261 6 13.25V4.5Z" fill="#232323"/>
<path id="Vector_3" d="M9 5C9 4.72386 8.77614 4.5 8.5 4.5C8.22386 4.5 8 4.72386 8 5V13.25C8 13.5261 8.22386 13.75 8.5 13.75C8.77614 13.75 9 13.5261 9 13.25V5Z" fill="#232323"/>
<path id="Vector_4" d="M12 5C12 4.72386 11.7761 4.5 11.5 4.5C11.2239 4.5 11 4.72386 11 5V14C11 14.2761 11.2239 14.5 11.5 14.5C11.7761 14.5 12 14.2761 12 14V5Z" fill="#232323"/>
<path id="Vector_5" d="M13.5 7H2.5C2.22386 7 2 7.22386 2 7.5C2 7.77614 2.22386 8 2.5 8H13.5C13.7761 8 14 7.77614 14 7.5C14 7.22386 13.7761 7 13.5 7Z" fill="#232323"/>
<path id="Vector_6" d="M13.75 10H2.5C2.22386 10 2 10.2239 2 10.5C2 10.7761 2.22386 11 2.5 11H13.75C14.0261 11 14.25 10.7761 14.25 10.5C14.25 10.2239 14.0261 10 13.75 10Z" fill="#232323"/>
<path id="Vector_7" opacity="0.5" d="M9 8H11V10H9V8Z" fill="#232323"/>
</g>
</g>
</svg>
