<svg width="16" height="16" viewBox="0 0 16 16" fill="none" xmlns="http://www.w3.org/2000/svg">
<g id="Status Icons/bluetooth-disabled-symbolic">
<g id="Group">
<path id="Vector" d="M0 0H16V16H0V0Z" fill="#808080" fill-opacity="0.01"/>
<path id="Vector_2" d="M8.50011 0.019989C7.23211 0.019989 6.08412 0.504375 5.15612 1.2844L7.9691 4.0929V2.57978C7.96912 2.48109 7.99842 2.38464 8.0533 2.30257C8.10818 2.2205 8.18619 2.15648 8.27745 2.11865C8.36872 2.08083 8.46918 2.07086 8.56612 2.09C8.66306 2.10915 8.75212 2.15657 8.8221 2.22625L11.8221 5.2225C11.8719 5.27208 11.9107 5.33159 11.9359 5.39715C11.9611 5.46271 11.9721 5.53283 11.9684 5.60295C11.9646 5.67307 11.9461 5.74163 11.914 5.80411C11.8819 5.8666 11.837 5.9216 11.7821 5.96556L10.7051 6.82548L13.9951 10.1114C13.9951 10.0764 14.0001 10.0425 14.0001 10.0075V6.0125C14.0001 2.69265 11.5471 0.019989 8.50011 0.019989ZM4.18611 2.29214C3.40742 3.3761 2.99225 4.67843 3.00011 6.0125V10.0075C3.00011 13.3274 5.45311 16 8.50011 16C10.9611 16 13.0341 14.2552 13.7401 11.8352L9.60411 7.70539L9.14412 8.07194L11.7811 10.1793C11.836 10.2232 11.881 10.2781 11.9132 10.3406C11.9454 10.403 11.964 10.4716 11.9679 10.5417C11.9718 10.6118 11.9608 10.682 11.9357 10.7476C11.9105 10.8132 11.8718 10.8727 11.8221 10.9224L8.8221 13.9186C8.75218 13.9882 8.66321 14.0356 8.56636 14.0548C8.46952 14.074 8.36914 14.0641 8.27791 14.0264C8.18668 13.9887 8.10868 13.9248 8.05373 13.8429C7.99877 13.761 7.96932 13.6647 7.9691 13.5661V9.01175L5.78112 10.7596C5.26112 11.177 4.63512 10.396 5.15612 9.98054L7.54311 8.07292L5.37712 6.0125C4.81112 5.60202 5.25712 4.92385 5.78112 5.38627L7.9691 7.13409V6.07142L4.18611 2.29214ZM8.9691 3.78527V5.09166L9.99211 6.11437L10.7211 5.5351L8.9691 3.78527ZM8.9691 9.21151V12.3606L10.7211 10.6108L8.9691 9.21151Z" fill="#232323"/>
<path id="Vector_3" d="M14.8594 12.9524L3.55069 1.65775C3.16134 1.26888 2.53009 1.26887 2.14073 1.65773C1.75138 2.0466 1.75137 2.67709 2.14073 3.06595L13.4495 14.3606C13.8388 14.7495 14.4701 14.7495 14.8595 14.3606C15.2488 13.9717 15.2488 13.3413 14.8594 12.9524Z" fill="#232323"/>
</g>
</g>
</svg>
