<svg width="16" height="17" viewBox="0 0 16 17" fill="none" xmlns="http://www.w3.org/2000/svg">
<g id="Status Icons/bluetooth-active-symbolic">
<path id="Vector" d="M8.5 0.0200195C5.453 0.0200195 3 2.69602 3 6.02002V10.02C3 13.344 5.453 16.02 8.5 16.02C11.547 16.02 14 13.344 14 10.02V6.02002C14 2.69602 11.547 0.0200195 8.5 0.0200195V0.0200195ZM8.46 2.08202C8.52712 2.08097 8.59376 2.09344 8.65595 2.1187C8.71815 2.14395 8.77462 2.18147 8.822 2.22902L11.822 5.22902C11.8718 5.27866 11.9106 5.33825 11.9358 5.40389C11.961 5.46953 11.972 5.53975 11.9683 5.60996C11.9645 5.68017 11.946 5.7488 11.9139 5.81136C11.8818 5.87392 11.8368 5.929 11.782 5.97302L9.145 8.08302L11.781 10.192C11.8359 10.236 11.8809 10.291 11.9131 10.3535C11.9453 10.416 11.9639 10.4846 11.9678 10.5549C11.9717 10.6251 11.9607 10.6953 11.9356 10.761C11.9104 10.8267 11.8717 10.8863 11.822 10.936L8.822 13.936C8.75208 14.0057 8.66309 14.0532 8.56624 14.0724C8.4694 14.0916 8.36903 14.0817 8.27781 14.0439C8.18658 14.0062 8.10857 13.9422 8.05362 13.8602C7.99866 13.7782 7.96922 13.6817 7.969 13.583V9.02302L5.781 10.773C5.67714 10.851 5.54699 10.8856 5.4181 10.8693C5.28922 10.8531 5.17172 10.7873 5.09049 10.6859C5.00926 10.5845 4.97068 10.4555 4.9829 10.3262C4.99513 10.1969 5.05721 10.0774 5.156 9.99302L7.543 8.08302L5.156 6.17302C5.10245 6.13279 5.05753 6.08222 5.0239 6.02429C4.99028 5.96637 4.96863 5.90229 4.96025 5.83584C4.95187 5.76939 4.95692 5.70193 4.97511 5.63748C4.99329 5.57302 5.02425 5.51287 5.06613 5.4606C5.10801 5.40834 5.15996 5.36502 5.2189 5.33322C5.27785 5.30142 5.34258 5.28178 5.40926 5.27548C5.47593 5.26917 5.5432 5.27633 5.60706 5.29652C5.67092 5.31671 5.73007 5.34953 5.781 5.39302L7.969 7.14302V2.58302C7.96898 2.45179 8.02056 2.32581 8.11261 2.23226C8.20465 2.13872 8.32978 2.08512 8.461 2.08302L8.46 2.08202ZM8.97 3.79002V6.94302L10.722 5.54302L8.97 3.79002ZM8.97 9.22402V12.376L10.722 10.624L8.97 9.22402Z" fill="#232323"/>
</g>
</svg>
