<svg width="16" height="16" viewBox="0 0 16 16" fill="none" xmlns="http://www.w3.org/2000/svg">
<g id="Status Icons/notification-new-symbolic" clip-path="url(#clip0_4614_124695)">
<path id="Vector" d="M0 0H16V16H0V0Z" fill="#808080" fill-opacity="0.01"/>
<path id="Vector_2" d="M7.23995 3C7.73568 3.7396 8.00087 4.60963 8.00195 5.5C8.00195 6.09095 7.88556 6.67611 7.65941 7.22208C7.43326 7.76804 7.1018 8.26412 6.68393 8.68198C6.26607 9.09984 5.76999 9.43131 5.22403 9.65746C4.67806 9.8836 4.0929 10 3.50195 10C2.61179 9.99951 1.74178 9.73502 1.00195 9.24V10C1.00195 11.108 1.89395 12 3.00195 12H13.002C14.11 12 15.002 11.108 15.002 10V5C15.002 3.892 14.11 3 13.002 3H7.23995Z" fill="#232323"/>
<path id="Vector_3" d="M12 12L10 15L8 12H12Z" fill="#232323"/>
<path id="Vector_4" d="M3.5 2C2.57174 2 1.6815 2.36875 1.02513 3.02513C0.368749 3.6815 0 4.57174 0 5.5C0 6.42826 0.368749 7.3185 1.02513 7.97487C1.6815 8.63125 2.57174 9 3.5 9C4.42826 9 5.3185 8.63125 5.97487 7.97487C6.63125 7.3185 7 6.42826 7 5.5C7 4.57174 6.63125 3.6815 5.97487 3.02513C5.3185 2.36875 4.42826 2 3.5 2ZM3 3H4V6H3V3ZM3 7H4V8H3V7Z" fill="#232323"/>
</g>
<defs>
<clipPath id="clip0_4614_124695">
<rect width="16" height="16" fill="white"/>
</clipPath>
</defs>
</svg>
