<svg width="16" height="16" viewBox="0 0 16 16" fill="none" xmlns="http://www.w3.org/2000/svg">
<path opacity="0.35" d="M2 12C1.44772 12 1 11.5523 1 11L1 5C1 4.44772 1.44772 4 2 4L2 12Z" fill="#F44336"/>
<path fill-rule="evenodd" clip-rule="evenodd" d="M0 5C0 3.89543 0.895431 3 2 3H12C13.1046 3 14 3.89543 14 5V6L14.0018 6C15.1054 6 16 6.89543 16 8C16 9.10457 15.1054 10 14.0018 10L14 10V11C14 12.1046 13.1046 13 12 13H2C0.89543 13 0 12.1046 0 11V5ZM2 4H10C10.5523 4 11 4.44772 11 5V11C11 11.5523 10.5523 12 10 12H2C1.44772 12 1 11.5523 1 11V5C1 4.44772 1.44772 4 2 4Z" fill="#F44336"/>
</svg>
