<svg width="17" height="16" viewBox="0 0 17 16" fill="none" xmlns="http://www.w3.org/2000/svg">
<g id="Group">
<path id="Vector" d="M0.00195312 0H16.003V16.001H0.00195312V0Z" fill="#808080" fill-opacity="0.01"/>
<path id="Vector_2" opacity="0.35" d="M8.00195 0C6.33995 0 5.00195 1.338 5.00195 3V8C5.00195 9.662 6.33995 11 8.00195 11C9.66395 11 11.002 9.662 11.002 8V3C11.002 1.338 9.66395 0 8.00195 0ZM8.00195 2C8.55595 2 9.00195 2.446 9.00195 3V8C9.00195 8.554 8.55595 9 8.00195 9C7.44795 9 7.00195 8.554 7.00195 8V3C7.00195 2.446 7.44795 2 8.00195 2ZM3.00195 6.998C2.73674 6.998 2.48238 7.10336 2.29485 7.29089C2.10731 7.47843 2.00195 7.73278 2.00195 7.998C2.00195 7.99867 2.00195 7.99933 2.00195 8V8.004C2.00216 8.03138 2.0035 8.05873 2.00595 8.086C2.02632 9.48732 2.5374 10.8371 3.45024 11.9005C4.36308 12.9639 5.6199 13.6736 7.00195 13.906V14.998C7.00195 15.2632 7.10731 15.5176 7.29485 15.7051C7.48238 15.8926 7.73674 15.998 8.00195 15.998C8.26717 15.998 8.52152 15.8926 8.70906 15.7051C8.8966 15.5176 9.00195 15.2632 9.00195 14.998V13.906C10.399 13.6715 11.6678 12.9495 12.5832 11.8684C13.4985 10.7872 14.0012 9.41662 14.002 8C14.002 7.99933 14.002 7.99867 14.002 7.998C14.002 7.73278 13.8966 7.47843 13.7091 7.29089C13.5215 7.10336 13.2672 6.998 13.002 6.998C12.7367 6.998 12.4824 7.10336 12.2948 7.29089C12.1073 7.47843 12.002 7.73278 12.002 7.998C12.002 7.99867 12.002 7.99933 12.002 8C12.002 10.233 10.235 12 8.00195 12C7.47555 12.004 6.95361 11.9033 6.46651 11.7037C5.9794 11.504 5.53686 11.2096 5.16463 10.8373C4.79239 10.4651 4.49791 10.0226 4.2983 9.53545C4.0987 9.04834 3.99796 8.5264 4.00195 8C4.00195 7.99933 4.00195 7.99867 4.00195 7.998C4.00195 7.73278 3.8966 7.47843 3.70906 7.29089C3.52152 7.10336 3.26717 6.998 3.00195 6.998Z" fill="#232323"/>
</g>
</svg>
