<svg width="17" height="16" viewBox="0 0 17 16" fill="none" xmlns="http://www.w3.org/2000/svg">
<g id="Group">
<path id="Vector" d="M0.00390625 0H16.0049V16.001H0.00390625V0Z" fill="#808080" fill-opacity="0.01"/>
<path id="Vector_2" d="M8.00391 0C6.34191 0 5.00391 1.338 5.00391 3V8C5.00391 9.662 6.34191 11 8.00391 11C9.66591 11 11.0039 9.662 11.0039 8V3C11.0039 1.338 9.66591 0 8.00391 0ZM8.00391 2C8.55791 2 9.00391 2.446 9.00391 3V8C9.00391 8.554 8.55791 9 8.00391 9C7.44991 9 7.00391 8.554 7.00391 8V3C7.00391 2.446 7.44991 2 8.00391 2ZM3.00391 6.998C2.73869 6.998 2.48434 7.10336 2.2968 7.29089C2.10926 7.47843 2.00391 7.73278 2.00391 7.998C2.00391 7.99867 2.00391 7.99933 2.00391 8V8.004C2.00412 8.03138 2.00545 8.05873 2.00791 8.086C2.02827 9.48732 2.53935 10.8371 3.45219 11.9005C4.36504 12.9639 5.62185 13.6736 7.00391 13.906V14.998C7.00391 15.2632 7.10926 15.5176 7.2968 15.7051C7.48434 15.8926 7.73869 15.998 8.00391 15.998C8.26912 15.998 8.52348 15.8926 8.71101 15.7051C8.89855 15.5176 9.00391 15.2632 9.00391 14.998V13.906C10.401 13.6715 11.6698 12.9495 12.5851 11.8684C13.5005 10.7872 14.0031 9.41662 14.0039 8C14.0039 7.99933 14.0039 7.99867 14.0039 7.998C14.0039 7.73278 13.8986 7.47843 13.711 7.29089C13.5235 7.10336 13.2691 6.998 13.0039 6.998C12.7387 6.998 12.4843 7.10336 12.2968 7.29089C12.1093 7.47843 12.0039 7.73278 12.0039 7.998C12.0039 7.99867 12.0039 7.99933 12.0039 8C12.0039 10.233 10.2369 12 8.00391 12C7.47751 12.004 6.95557 11.9033 6.46846 11.7037C5.98136 11.504 5.53881 11.2096 5.16658 10.8373C4.79435 10.4651 4.49986 10.0226 4.30025 9.53545C4.10065 9.04834 3.99991 8.5264 4.00391 8C4.00391 7.99933 4.00391 7.99867 4.00391 7.998C4.00391 7.73278 3.89855 7.47843 3.71101 7.29089C3.52348 7.10336 3.26912 6.998 3.00391 6.998Z" fill="#232323"/>
</g>
</svg>
