<svg width="16" height="16" viewBox="0 0 16 16" fill="none" xmlns="http://www.w3.org/2000/svg">
<g id="Status Icons/audio-volume-overamplified-symbolic" clip-path="url(#clip0_4612_124298)">
<g id="Group">
<path id="Vector" d="M0 0H16V16H0V0Z" fill="#808080" fill-opacity="0.01"/>
<path id="Vector_2" d="M7.07001 2.05C6.86376 2.05627 6.66456 2.12653 6.5 2.25102L3 5.00102H1C0.446 5.00102 0 5.44702 0 6.00102V10.001C0 10.555 0.446 11.001 1 11.001H3L6.5 13.751C7 14.144 8 14.001 8 13.001V3.00102C8 2.31402 7.52801 2.031 7.07001 2.05Z" fill="#232323"/>
<path id="Vector_3" d="M10 6.5C10 6.22386 9.77614 6 9.5 6C9.22386 6 9 6.22386 9 6.5V9.5C9 9.77614 9.22386 10 9.5 10C9.77614 10 10 9.77614 10 9.5V6.5Z" fill="#232323"/>
<path id="Vector_4" d="M13 5C13 4.44772 12.5523 4 12 4C11.4477 4 11 4.44772 11 5V11C11 11.5523 11.4477 12 12 12C12.5523 12 13 11.5523 13 11V5Z" fill="#232323"/>
<path id="Vector_5" d="M16 3C16 2.44772 15.5523 2 15 2C14.4477 2 14 2.44772 14 3V13C14 13.5523 14.4477 14 15 14C15.5523 14 16 13.5523 16 13V3Z" fill="#232323"/>
</g>
</g>
<defs>
<clipPath id="clip0_4612_124298">
<rect width="16" height="16" fill="white"/>
</clipPath>
</defs>
</svg>
