<svg width="17" height="16" viewBox="0 0 17 16" fill="none" xmlns="http://www.w3.org/2000/svg">
<g id="Group">
<path id="Vector" d="M0.00195312 0H16.003V16.001H0.00195312V0Z" fill="#808080" fill-opacity="0.01"/>
<path id="Vector_2" d="M8.00195 9.93106e-06C7.41214 -0.00150859 6.83499 0.171149 6.34293 0.496348C5.85086 0.821547 5.46578 1.28481 5.23596 1.82801V1.83L11.002 7.594V3.00001C11.002 1.33801 9.66395 9.93106e-06 8.00195 9.93106e-06ZM5.00195 4.40602V8.00001C5.00097 8.62896 5.19815 9.24223 5.56549 9.75276C5.93283 10.2633 6.45165 10.6451 7.04831 10.844C7.64497 11.043 8.28913 11.0489 8.88934 10.8609C9.48955 10.673 10.0153 10.3007 10.392 9.79701L5.00195 4.40602ZM3.00195 6.998C2.73674 6.998 2.4824 7.10337 2.29486 7.2909C2.10732 7.47844 2.00195 7.73278 2.00195 7.998C2.00195 7.99866 2.00195 7.99934 2.00195 8.00001V8.00401C2.00216 8.03138 2.0035 8.05874 2.00595 8.08601C2.02632 9.48732 2.53741 10.8371 3.45026 11.9005C4.3631 12.9639 5.6199 13.6736 7.00195 13.906V14.998C7.00195 15.2632 7.10732 15.5176 7.29486 15.7051C7.4824 15.8927 7.73674 15.998 8.00195 15.998C8.26717 15.998 8.52151 15.8927 8.70905 15.7051C8.89658 15.5176 9.00195 15.2632 9.00195 14.998V13.906C10.3701 13.6755 11.6157 12.977 12.5259 11.93L11.1079 10.512C10.7356 10.9778 10.2629 11.3536 9.72513 11.6112C9.18732 11.8689 8.59829 12.0018 8.00195 12C7.47555 12.004 6.95363 11.9033 6.46652 11.7037C5.97942 11.504 5.53684 11.2096 5.16461 10.8374C4.79238 10.4651 4.49791 10.0225 4.29831 9.53544C4.09871 9.04833 3.99796 8.52641 4.00195 8.00001C4.00195 7.99934 4.00195 7.99866 4.00195 7.998C4.00195 7.73278 3.89658 7.47844 3.70905 7.2909C3.52151 7.10337 3.26717 6.998 3.00195 6.998ZM13.002 6.998C12.7367 6.998 12.4824 7.10337 12.2949 7.2909C12.1073 7.47844 12.002 7.73278 12.002 7.998C12.002 7.99866 12.002 7.99934 12.002 8.00001C12.002 8.18601 11.9729 8.36199 11.9489 8.54099L13.586 10.178C13.8597 9.48443 14.0007 8.74564 14.002 8.00001C14.002 7.99934 14.002 7.99866 14.002 7.998C14.002 7.73278 13.8966 7.47844 13.709 7.2909C13.5215 7.10337 13.2672 6.998 13.002 6.998Z" fill="#232323"/>
<path id="Vector_3" d="M15.2032 13.7982L2.20303 0.798064C1.81368 0.408712 1.18241 0.408718 0.793055 0.798071C0.403702 1.18742 0.403696 1.8187 0.793048 2.20805L13.7932 15.2082C14.1826 15.5976 14.8138 15.5976 15.2032 15.2082C15.5925 14.8188 15.5925 14.1876 15.2032 13.7982Z" fill="#232323"/>
</g>
</svg>
