<svg width="16" height="16" viewBox="0 0 16 16" fill="none" xmlns="http://www.w3.org/2000/svg">
<g id="Status Icons/network-wireless-acquiring-symbolic" clip-path="url(#clip0_4612_124302)">
<path id="Vector" d="M16 16.003V0.00299072H0V16.003H16Z" fill="#808080" fill-opacity="0.01"/>
<path id="Vector_2" opacity="0.35" d="M8.00391 1.01301C5.10891 1.01301 2.21391 2.11801 0.00390625 4.32601L6.55391 12.257H6.55691C6.68691 12.393 6.83991 12.5 6.99991 12.593V11.005H10.4799L16.0039 4.32501C14.9542 3.27338 13.7071 2.43945 12.3342 1.87108C10.9614 1.30271 9.48977 1.01111 8.00391 1.01301Z" fill="#232323"/>
<path id="Vector_3" d="M16 13.003C16 13.2682 15.8946 13.5226 15.7071 13.7101C15.5196 13.8976 15.2652 14.003 15 14.003C14.7348 14.003 14.4804 13.8976 14.2929 13.7101C14.1054 13.5226 14 13.2682 14 13.003C14 12.7378 14.1054 12.4834 14.2929 12.2959C14.4804 12.1083 14.7348 12.003 15 12.003C15.2652 12.003 15.5196 12.1083 15.7071 12.2959C15.8946 12.4834 16 12.7378 16 13.003ZM13 13.003C13 13.2682 12.8946 13.5226 12.7071 13.7101C12.5196 13.8976 12.2652 14.003 12 14.003C11.7348 14.003 11.4804 13.8976 11.2929 13.7101C11.1054 13.5226 11 13.2682 11 13.003C11 12.7378 11.1054 12.4834 11.2929 12.2959C11.4804 12.1083 11.7348 12.003 12 12.003C12.2652 12.003 12.5196 12.1083 12.7071 12.2959C12.8946 12.4834 13 12.7378 13 13.003ZM10 13.003C10 13.2682 9.89464 13.5226 9.70711 13.7101C9.51957 13.8976 9.26522 14.003 9 14.003C8.73478 14.003 8.48043 13.8976 8.29289 13.7101C8.10536 13.5226 8 13.2682 8 13.003C8 12.7378 8.10536 12.4834 8.29289 12.2959C8.48043 12.1083 8.73478 12.003 9 12.003C9.26522 12.003 9.51957 12.1083 9.70711 12.2959C9.89464 12.4834 10 12.7378 10 13.003Z" fill="#232323"/>
</g>
<defs>
<clipPath id="clip0_4612_124302">
<rect width="16" height="16" fill="white"/>
</clipPath>
</defs>
</svg>
