<svg width="16" height="16" viewBox="0 0 16 16" fill="none" xmlns="http://www.w3.org/2000/svg">
<g id="Status Icons/network-wired-symbolic" clip-path="url(#clip0_4620_124305)">
<path id="Vector" d="M16 0H0V16H16V0Z" fill="#808080" fill-opacity="0.01"/>
<path id="Vector_2" d="M1.99609 1.995C1.99609 1.995 0.996094 1.99499 0.996094 2.99499V11.995C0.996094 12.995 1.99609 12.995 1.99609 12.995H3.99609L4.99609 13.995H10.9961L11.9961 12.995H13.9961C13.9961 12.995 14.9961 13.125 14.9961 11.995V2.99499C14.9961 1.99499 13.9961 1.995 13.9961 1.995H1.99609ZM2.99609 3.99499H3.99609V6.995H5.99609V3.99499H6.99609V6.995H8.99609V3.99499H9.99609V6.995H11.9961V3.99499H12.9961V10.995H10.9961L9.99609 11.995H5.99609L4.99609 10.995H2.99609V3.99499Z" fill="#232323"/>
</g>
<defs>
<clipPath id="clip0_4620_124305">
<rect width="16" height="16" fill="white"/>
</clipPath>
</defs>
</svg>
