<svg width="16" height="16" viewBox="0 0 16 16" fill="none" xmlns="http://www.w3.org/2000/svg">
<g id="Status Icons/network-wireless-no-route-symbolic" clip-path="url(#clip0_4624_124418)">
<path id="Vector" d="M16 16V0H0V16H16Z" fill="#808080" fill-opacity="0.01"/>
<path id="Vector_2" d="M8.00391 1.01001C6.85391 1.01001 5.70791 1.19101 4.60191 1.54001C4.27191 1.64301 3.94391 1.76001 3.62291 1.89501C3.47691 1.95601 3.33491 2.02801 3.19191 2.09501C2.79712 2.2798 2.41347 2.48749 2.04291 2.71701C1.81291 2.86001 1.58891 3.01501 1.36691 3.17601C1.23691 3.27101 1.10591 3.36201 0.978906 3.46301C0.642906 3.73001 0.314906 4.01201 0.00390625 4.32301L6.55391 12.254H6.55691C6.74401 12.4486 6.96855 12.6033 7.21703 12.7087C7.4655 12.8142 7.73275 12.8683 8.00269 12.8678C8.27262 12.8672 8.53965 12.812 8.78768 12.7055C9.03571 12.599 9.25962 12.4434 9.44591 12.248H9.44891L16.0039 4.32201C15.7533 4.07368 15.4914 3.83709 15.2189 3.61301C15.1519 3.55801 15.0829 3.50701 15.0159 3.45301C14.8009 3.28301 14.5809 3.12101 14.3579 2.96901C14.2849 2.91901 14.2139 2.86801 14.1409 2.82001C13.5469 2.43417 12.9178 2.10537 12.2619 1.83801L12.2599 1.83601C10.9076 1.28948 9.4625 1.00902 8.00391 1.01001ZM8.00391 3.00801C8.53434 3.00801 9.04305 3.21873 9.41812 3.5938C9.79319 3.96887 10.0039 4.47758 10.0039 5.00801C10.0039 5.53845 9.79319 6.04715 9.41812 6.42223C9.04305 6.7973 8.53434 7.00801 8.00391 7.00801V8.00801H7.00391V6.00801H8.00391C8.20169 6.00801 8.39503 5.94936 8.55948 5.83948C8.72393 5.7296 8.8521 5.57342 8.92779 5.3907C9.00347 5.20797 9.02328 5.0069 8.98469 4.81292C8.94611 4.61894 8.85087 4.44076 8.71101 4.30091C8.57116 4.16105 8.39298 4.06581 8.199 4.02723C8.00502 3.98864 7.80395 4.00845 7.62122 4.08413C7.4385 4.15982 7.28232 4.28799 7.17244 4.45244C7.06255 4.61689 7.00391 4.81023 7.00391 5.00801H6.00391C6.00391 4.47758 6.21462 3.96887 6.58969 3.5938C6.96477 3.21873 7.47347 3.00801 8.00391 3.00801ZM7.50391 8.75801C7.70282 8.75801 7.89358 8.83703 8.03424 8.97768C8.17489 9.11833 8.25391 9.3091 8.25391 9.50801C8.25391 9.70693 8.17489 9.89769 8.03424 10.0383C7.89358 10.179 7.70282 10.258 7.50391 10.258C7.30499 10.258 7.11423 10.179 6.97358 10.0383C6.83292 9.89769 6.75391 9.70693 6.75391 9.50801C6.75391 9.3091 6.83292 9.11833 6.97358 8.97768C7.11423 8.83703 7.30499 8.75801 7.50391 8.75801Z" fill="#232323"/>
</g>
<defs>
<clipPath id="clip0_4624_124418">
<rect width="16" height="16" fill="white"/>
</clipPath>
</defs>
</svg>
