<svg width="16" height="16" viewBox="0 0 16 16" fill="none" xmlns="http://www.w3.org/2000/svg">
<g id="Status Icons/network-wired-acquiring-symbolic" clip-path="url(#clip0_4620_124303)">
<path id="Vector" d="M16 0H0V16H16V0Z" fill="#808080" fill-opacity="0.01"/>
<path id="Vector_2" d="M15 12C15 12.2652 14.8946 12.5196 14.7071 12.7071C14.5196 12.8946 14.2652 13 14 13C13.7348 13 13.4804 12.8946 13.2929 12.7071C13.1054 12.5196 13 12.2652 13 12C13 11.7348 13.1054 11.4804 13.2929 11.2929C13.4804 11.1054 13.7348 11 14 11C14.2652 11 14.5196 11.1054 14.7071 11.2929C14.8946 11.4804 15 11.7348 15 12ZM12 12C12 12.2652 11.8946 12.5196 11.7071 12.7071C11.5196 12.8946 11.2652 13 11 13C10.7348 13 10.4804 12.8946 10.2929 12.7071C10.1054 12.5196 10 12.2652 10 12C10 11.7348 10.1054 11.4804 10.2929 11.2929C10.4804 11.1054 10.7348 11 11 11C11.2652 11 11.5196 11.1054 11.7071 11.2929C11.8946 11.4804 12 11.7348 12 12ZM9 12C9 12.2652 8.89464 12.5196 8.70711 12.7071C8.51957 12.8946 8.26522 13 8 13C7.73478 13 7.48043 12.8946 7.29289 12.7071C7.10536 12.5196 7 12.2652 7 12C7 11.7348 7.10536 11.4804 7.29289 11.2929C7.48043 11.1054 7.73478 11 8 11C8.26522 11 8.51957 11.1054 8.70711 11.2929C8.89464 11.4804 9 11.7348 9 12Z" fill="#232323"/>
<g id="Group" opacity="0.35">
<path id="Vector_3" d="M1.99609 1.995C1.99609 1.995 0.996094 1.99499 0.996094 2.99499V11.995C0.996094 12.995 1.99609 12.995 1.99609 12.995H3.99609L4.99609 13.995H5.99609V11.995L4.99609 10.995H2.99609V3.99499H3.99609V6.995H5.99609V3.99499H6.99609V6.995H8.99609V3.99499H9.99609V6.995H11.9961V3.99499H12.9961V9.995H14.9961V2.99499C14.9961 1.99499 13.9961 1.995 13.9961 1.995H1.99609Z" fill="#232323"/>
</g>
</g>
<defs>
<clipPath id="clip0_4620_124303">
<rect width="16" height="16" fill="white"/>
</clipPath>
</defs>
</svg>
