<svg width="16" height="16" viewBox="0 0 16 16" fill="none" xmlns="http://www.w3.org/2000/svg">
<g id="Status Icons/network-wired-disconnected-symbolic" clip-path="url(#clip0_4620_124304)">
<g id="Vector">
<path d="M11.7884 13.2047L10.2884 11.7047L9.99805 11.995H5.99805L4.99805 10.995H2.99805V4.41438L1.09828 2.51462C1.03648 2.64133 0.998047 2.79894 0.998047 2.99499V11.995C0.998047 12.995 1.99805 12.995 1.99805 12.995H3.99805L4.99805 13.995H10.998L11.7884 13.2047Z" fill="#232323"/>
<path d="M3.99805 5.41438L5.57865 6.99499H3.99805V5.41438Z" fill="#232323"/>
</g>
<path id="Vector_2" d="M15.2051 13.8012L2.20499 0.800994C1.81563 0.411641 1.18436 0.411648 0.795008 0.801C0.405655 1.19035 0.405649 1.82163 0.795002 2.21098L13.7952 15.2111C14.1845 15.6005 14.8158 15.6005 15.2051 15.2111C15.5945 14.8218 15.5945 14.1905 15.2051 13.8012Z" fill="#232323"/>
<path id="Vector_3" d="M14.9991 11.9961V2.99503C14.9991 1.99503 13.9991 1.99503 13.9991 1.99503H4.99805L6.99805 3.99503H6.99915V3.99612L8.99915 5.99612V3.99503H9.99915V6.99503H11.9991V3.99503H12.9991V9.99612L14.9991 11.9961Z" fill="#232323"/>
</g>
<defs>
<clipPath id="clip0_4620_124304">
<rect width="16" height="16" fill="white"/>
</clipPath>
</defs>
</svg>
