<svg width="17" height="16" viewBox="0 0 17 16" fill="none" xmlns="http://www.w3.org/2000/svg">
<g id="Status Icons/network-wireless-signal-ok-symbolic" clip-path="url(#clip0_4612_124306)">
<path id="Vector" d="M16.002 16V0H0.00195312V16H16.002Z" fill="#808080" fill-opacity="0.01"/>
<path id="Vector_2" opacity="0.35" d="M8.00195 1.01001C6.54256 1.00945 5.09678 1.29059 3.74395 1.83801C2.34213 2.40615 1.06939 3.25135 0.00195312 4.32301L6.55195 12.254H6.55495C6.74204 12.4484 6.96653 12.603 7.21491 12.7084C7.46329 12.8137 7.73042 12.8678 8.00023 12.8672C8.27004 12.8667 8.53695 12.8115 8.78489 12.7051C9.03283 12.5987 9.25668 12.4432 9.44295 12.248H9.44695L16.002 4.32201C15.1957 3.51465 14.2719 2.83395 13.262 2.30301C13.24 2.29101 13.216 2.28301 13.194 2.27201C12.8436 2.09246 12.4841 1.93124 12.117 1.78901C11.98 1.73601 11.84 1.69101 11.701 1.64301C11.2927 1.50125 10.8767 1.38306 10.455 1.28901C10.191 1.23101 9.92495 1.18401 9.65795 1.14501C9.51295 1.12301 9.36795 1.09801 9.22095 1.08201C8.8162 1.03624 8.40928 1.0122 8.00195 1.01001Z" fill="#232323"/>
<path id="Vector_3" d="M8.00212 6.00999C7.08767 6.00853 6.18193 6.18772 5.33692 6.53729C4.49192 6.88686 3.72429 7.39991 3.07812 8.04699L6.55313 12.254H6.55512C6.74221 12.4484 6.9667 12.603 7.21508 12.7083C7.46346 12.8137 7.73059 12.8678 8.00041 12.8672C8.27022 12.8666 8.53712 12.8115 8.78506 12.7051C9.033 12.5987 9.25685 12.4432 9.44312 12.248H9.44712L12.9221 8.04499C12.2764 7.39853 11.5094 6.88598 10.6651 6.53675C9.82079 6.18753 8.91581 6.00852 8.00212 6.00999Z" fill="#232323"/>
</g>
<defs>
<clipPath id="clip0_4612_124306">
<rect width="16.001" height="16" fill="white" transform="translate(0.00195312)"/>
</clipPath>
</defs>
</svg>
