<svg width="17" height="16" viewBox="0 0 17 16" fill="none" xmlns="http://www.w3.org/2000/svg">
<g id="Status Icons/network-wireless-signal-good-symbolic" clip-path="url(#clip0_4612_124304)">
<path id="Vector" d="M16.0039 16V0H0.00390625V16H16.0039Z" fill="#808080" fill-opacity="0.01"/>
<path id="Vector_2" opacity="0.35" d="M8.00391 1.01001C6.54452 1.00945 5.09874 1.29059 3.74591 1.83801C2.34409 2.40615 1.07135 3.25135 0.00390625 4.32301L6.55391 12.254H6.55691C6.74399 12.4484 6.96848 12.603 7.21686 12.7084C7.46524 12.8137 7.73237 12.8678 8.00219 12.8672C8.272 12.8667 8.53891 12.8115 8.78685 12.7051C9.03479 12.5987 9.25863 12.4432 9.44491 12.248H9.44891L16.0039 4.32201C15.1976 3.51465 14.2739 2.83395 13.2639 2.30301C13.2419 2.29101 13.2179 2.28301 13.1959 2.27201C12.8455 2.09246 12.486 1.93124 12.1189 1.78901C11.9819 1.73601 11.8419 1.69101 11.7029 1.64301C11.2947 1.50125 10.8787 1.38306 10.4569 1.28901C10.1929 1.23101 9.92691 1.18401 9.65991 1.14501C9.51491 1.12301 9.36991 1.09801 9.22291 1.08201C8.81815 1.03624 8.41123 1.0122 8.00391 1.01001Z" fill="#232323"/>
<path id="Vector_3" d="M8.00361 4.00999C6.86065 4.00835 5.72862 4.23251 4.67253 4.6696C3.61645 5.10669 2.65711 5.7481 1.84961 6.55699L6.55461 12.254H6.55661C6.74369 12.4484 6.96818 12.603 7.21656 12.7083C7.46494 12.8137 7.73208 12.8678 8.00189 12.8672C8.2717 12.8666 8.53861 12.8115 8.78655 12.7051C9.03449 12.5987 9.25833 12.4432 9.44461 12.248H9.44861L14.1556 6.55499C13.3482 5.7467 12.3891 5.1058 11.3334 4.66906C10.2777 4.23232 9.1461 4.00835 8.00361 4.00999Z" fill="#232323"/>
</g>
<defs>
<clipPath id="clip0_4612_124304">
<rect width="16.001" height="16" fill="white" transform="translate(0.00390625)"/>
</clipPath>
</defs>
</svg>
