<svg width="16" height="16" viewBox="0 0 16 16" fill="none" xmlns="http://www.w3.org/2000/svg">
<g id="Status Icons/network-wired-no-route-symbolic" clip-path="url(#clip0_4624_124417)">
<path id="Vector" d="M16 0H0V16H16V0Z" fill="#808080" fill-opacity="0.01"/>
<path id="Vector_2" d="M2 2C2 2 1 2 1 3V12C1 13 2 13 2 13H4L5 14H11L12 13H14C14 13 15 13.13 15 12V3C15 2 14 2 14 2H2ZM8 4C8.53043 4 9.03914 4.21071 9.41421 4.58579C9.78929 4.96086 10 5.46957 10 6C10 6.53043 9.78929 7.03914 9.41421 7.41421C9.03914 7.78929 8.53043 8 8 8V9H7V7H8C8.19778 7 8.39112 6.94135 8.55557 6.83147C8.72002 6.72159 8.84819 6.56541 8.92388 6.38268C8.99957 6.19996 9.01937 5.99889 8.98079 5.80491C8.9422 5.61093 8.84696 5.43275 8.70711 5.29289C8.56725 5.15304 8.38907 5.0578 8.19509 5.01921C8.00111 4.98063 7.80004 5.00043 7.61732 5.07612C7.43459 5.15181 7.27841 5.27998 7.16853 5.44443C7.05865 5.60888 7 5.80222 7 6H6C6 5.46957 6.21071 4.96086 6.58579 4.58579C6.96086 4.21071 7.46957 4 8 4ZM7.5 9.75C7.69891 9.75 7.88968 9.82902 8.03033 9.96967C8.17098 10.1103 8.25 10.3011 8.25 10.5C8.25 10.6989 8.17098 10.8897 8.03033 11.0303C7.88968 11.171 7.69891 11.25 7.5 11.25C7.30109 11.25 7.11032 11.171 6.96967 11.0303C6.82902 10.8897 6.75 10.6989 6.75 10.5C6.75 10.3011 6.82902 10.1103 6.96967 9.96967C7.11032 9.82902 7.30109 9.75 7.5 9.75Z" fill="#232323"/>
</g>
<defs>
<clipPath id="clip0_4624_124417">
<rect width="16" height="16" fill="white"/>
</clipPath>
</defs>
</svg>
