<svg width="17" height="16" viewBox="0 0 17 16" fill="none" xmlns="http://www.w3.org/2000/svg">
<g id="Status Icons/network-wireless-signal-weak-symbolic" clip-path="url(#clip0_4612_124307)">
<path id="Vector" d="M16 16V0H0V16H16Z" fill="#808080" fill-opacity="0.01"/>
<path id="Vector_2" opacity="0.35" d="M8 1.01001C6.54061 1.00945 5.09483 1.29059 3.742 1.83801C2.34018 2.40615 1.06744 3.25135 0 4.32301L6.55 12.254H6.553C6.74009 12.4484 6.96457 12.603 7.21295 12.7084C7.46133 12.8137 7.72847 12.8678 7.99828 12.8672C8.26809 12.8667 8.535 12.8115 8.78294 12.7051C9.03088 12.5987 9.25472 12.4432 9.441 12.248H9.445L16 4.32201C15.1937 3.51465 14.2699 2.83395 13.26 2.30301C13.238 2.29101 13.214 2.28301 13.192 2.27201C12.8416 2.09246 12.4821 1.93124 12.115 1.78901C11.978 1.73601 11.838 1.69101 11.699 1.64301C11.2908 1.50125 10.8748 1.38306 10.453 1.28901C10.189 1.23101 9.923 1.18401 9.656 1.14501C9.511 1.12301 9.366 1.09801 9.219 1.08201C8.81425 1.03624 8.40733 1.0122 8 1.01001Z" fill="#232323"/>
<path id="Vector_3" d="M7.99964 8.00999C7.31386 8.00883 6.6346 8.14313 6.00085 8.40518C5.3671 8.66722 4.79135 9.05185 4.30664 9.53699L6.55064 12.254H6.55264C6.73973 12.4484 6.96421 12.603 7.21259 12.7083C7.46097 12.8137 7.72811 12.8678 7.99792 12.8672C8.26773 12.8666 8.53464 12.8115 8.78258 12.7051C9.03052 12.5987 9.25436 12.4432 9.44064 12.248H9.44464L11.6886 9.53499C11.2044 9.05047 10.6293 8.66634 9.99621 8.40464C9.36315 8.14294 8.68465 8.00882 7.99964 8.00999Z" fill="#232323"/>
</g>
<defs>
<clipPath id="clip0_4612_124307">
<rect width="16.001" height="16" fill="white"/>
</clipPath>
</defs>
</svg>
