<svg width="17" height="16" viewBox="0 0 17 16" fill="none" xmlns="http://www.w3.org/2000/svg">
<g id="Status Icons/network-wireless-signal-none-symbolic" clip-path="url(#clip0_4612_124305)">
<path id="Vector" d="M16 16V0H0V16H16Z" fill="#808080" fill-opacity="0.01"/>
<path id="Vector_2" opacity="0.35" d="M7.99609 1.01001C6.5367 1.00945 5.09093 1.29059 3.73809 1.83801C2.33628 2.40615 1.06353 3.25135 -0.00390625 4.32301L6.54609 12.254H6.54909C6.73619 12.4486 6.96074 12.6033 7.20922 12.7087C7.45769 12.8142 7.72494 12.8683 7.99487 12.8677C8.26481 12.8672 8.53183 12.812 8.77987 12.7055C9.0279 12.599 9.25181 12.4434 9.43809 12.248H9.44209L15.9961 4.32201C15.1898 3.51465 14.266 2.83395 13.2561 2.30301C13.2341 2.29101 13.2101 2.28301 13.1881 2.27201C12.8377 2.09246 12.4782 1.93124 12.1111 1.78901C11.9741 1.73601 11.8341 1.69101 11.6951 1.64301C11.2869 1.50125 10.8709 1.38306 10.4491 1.28901C10.1851 1.23101 9.91909 1.18401 9.65209 1.14501C9.50709 1.12301 9.36209 1.09801 9.21509 1.08201C8.81034 1.03624 8.40342 1.0122 7.99609 1.01001Z" fill="#232323"/>
</g>
<defs>
<clipPath id="clip0_4612_124305">
<rect width="16.001" height="16" fill="white"/>
</clipPath>
</defs>
</svg>
