<svg width="16" height="17" viewBox="0 0 16 17" fill="none" xmlns="http://www.w3.org/2000/svg">
<g id="Status Icons/network-wireless-disconnected-symbolic" clip-path="url(#clip0_4612_124308)">
<path id="Vector" d="M-0.00195312 4.32301C0.598144 3.72346 1.24875 3.20523 1.93614 2.76837C1.98447 2.87701 2.05324 2.97878 2.14243 3.06787L10.2989 11.2142L9.44405 12.248H9.44005C9.25376 12.4434 9.02985 12.599 8.78182 12.7055C8.53379 12.812 8.26676 12.8672 7.99683 12.8678C7.72689 12.8683 7.45964 12.8142 7.21117 12.7087C6.9627 12.6033 6.73815 12.4486 6.55105 12.254H6.54505L-0.00195312 4.32301Z" fill="#232323"/>
<path id="Vector_2" d="M14.8614 12.9543L3.55264 1.65967C3.16329 1.27081 2.53204 1.27079 2.14269 1.65966C1.75333 2.04852 1.75333 2.67901 2.14268 3.06788L13.4514 14.3625C13.8408 14.7514 14.4721 14.7514 14.8614 14.3625C15.2508 13.9736 15.2508 13.3432 14.8614 12.9543Z" fill="#232323"/>
<g id="Vector_3">
<path d="M12.3658 8.71465L15.998 4.32202C14.9483 3.27039 13.7013 2.43646 12.3284 1.86809C10.9555 1.29972 9.48391 1.00812 7.99805 1.01002C7.00377 1.01002 6.00949 1.14036 5.04296 1.40096L12.3658 8.71465Z" fill="#232323"/>
<path d="M1.96737 2.7486C1.9976 2.87216 2.05539 2.98094 2.14243 3.06788L10.2989 11.2142L9.44405 12.248H9.44005C9.25376 12.4434 9.02985 12.599 8.78182 12.7055C8.53379 12.812 8.26676 12.8672 7.99683 12.8678C7.72689 12.8683 7.45964 12.8142 7.21117 12.7088C6.9627 12.6033 6.73815 12.4486 6.55105 12.254H6.54505L-0.00195312 4.32302C0.607224 3.71439 1.26845 3.18957 1.96737 2.7486Z" fill="#232323"/>
</g>
</g>
<defs>
<clipPath id="clip0_4612_124308">
<rect width="16" height="16.003" fill="white"/>
</clipPath>
</defs>
</svg>
