<svg width="16" height="16" viewBox="0 0 16 16" fill="none" xmlns="http://www.w3.org/2000/svg">
<g id="applet-graphics-mode">
<rect id="Rectangle 47" x="4" y="4" width="8" height="8" fill="#232323"/>
<g id="Rectangle 48">
<path d="M4 0.75C4 0.75 4 0 5 0C6 0 6 0.75 6 0.75V3H4V0.75Z" fill="#232323"/>
</g>
<g id="Rectangle 54">
<path d="M0.75 6C0.75 6 0 6 0 5C0 4 0.75 4 0.75 4H3V6H0.75Z" fill="#232323"/>
</g>
<g id="Rectangle 57">
<path d="M15.25 6C15.25 6 16 6 16 5C16 4 15.25 4 15.25 4H13V6H15.25Z" fill="#232323"/>
</g>
<g id="Rectangle 51">
<path d="M4 15.25C4 15.25 4 16 5 16C6 16 6 15.25 6 15.25V13H4V15.25Z" fill="#232323"/>
</g>
<g id="Rectangle 49">
<path d="M7 0.75C7 0.75 7 0 8 0C9 0 9 0.75 9 0.75V3H7V0.75Z" fill="#232323"/>
</g>
<g id="Rectangle 55">
<path d="M0.75 9C0.75 9 0 9 0 8C0 7 0.75 7 0.75 7H3V9H0.75Z" fill="#232323"/>
</g>
<g id="Rectangle 58">
<path d="M15.25 9C15.25 9 16 9 16 8C16 7 15.25 7 15.25 7H13V9H15.25Z" fill="#232323"/>
</g>
<g id="Rectangle 52">
<path d="M7 15.25C7 15.25 7 16 8 16C9 16 9 15.25 9 15.25V13H7V15.25Z" fill="#232323"/>
</g>
<g id="Rectangle 50">
<path d="M10 0.75C10 0.75 10 0 11 0C12 0 12 0.75 12 0.75V3H10V0.75Z" fill="#232323"/>
</g>
<g id="Rectangle 56">
<path d="M0.75 12C0.75 12 0 12 0 11C0 10 0.75 10 0.75 10H3V12H0.75Z" fill="#232323"/>
</g>
<g id="Rectangle 59">
<path d="M15.25 12C15.25 12 16 12 16 11C16 10 15.25 10 15.25 10H13V12H15.25Z" fill="#232323"/>
</g>
<g id="Rectangle 53">
<path d="M10 15.25C10 15.25 10 16 11 16C12 16 12 15.25 12 15.25V13H10V15.25Z" fill="#232323"/>
</g>
</g>
</svg>
