<svg width="256" height="256" viewBox="0 0 256 256" fill="none" xmlns="http://www.w3.org/2000/svg">
<path d="M24 40C24 31.1634 31.1634 24 40 24H104C112.837 24 120 31.1634 120 40V104C120 112.837 112.837 120 104 120H40C31.1634 120 24 112.837 24 104V40Z" fill="url(#paint0_linear_1924_275)"/>
<path d="M24 152C24 143.163 31.1634 136 40 136H104C112.837 136 120 143.163 120 152V216C120 224.837 112.837 232 104 232H40C31.1634 232 24 224.837 24 216V152Z" fill="url(#paint1_linear_1924_275)"/>
<path d="M136 40C136 31.1634 143.163 24 152 24H216C224.837 24 232 31.1634 232 40V104C232 112.837 224.837 120 216 120H152C143.163 120 136 112.837 136 104V40Z" fill="url(#paint2_linear_1924_275)"/>
<path d="M167.899 160L186.284 178.385L176.385 188.284L158 169.899L167.899 160Z" fill="#9E9E9E"/>
<path d="M184 128C184 158.928 158.928 184 128 184C97.072 184 72 158.928 72 128C72 97.072 97.072 72 128 72C158.928 72 184 97.072 184 128Z" fill="white"/>
<path d="M173 128C173 152.853 152.853 173 128 173C103.147 173 83 152.853 83 128C83 103.147 103.147 83 128 83C152.853 83 173 103.147 173 128Z" fill="url(#paint3_linear_1924_275)"/>
<path d="M109.001 168.001C135.51 168.001 157.001 146.511 157.001 120.001C157.001 106.335 151.29 94.0039 142.125 85.2622C160.058 91.186 173 108.082 173 128.001C173 152.854 152.853 173.001 128 173.001C120.539 173.001 113.502 171.185 107.308 167.972C107.87 167.991 108.434 168.001 109.001 168.001Z" fill="#BE6DEE"/>
<path d="M107 162.5C111.305 164.892 96.0003 146 96.0003 129C96.0003 109 107.5 95.0011 104.5 95.5002C101.624 95.9788 87.5002 109.5 86.9998 129C86.5891 145.003 98.0003 157.5 107 162.5Z" fill="#E9C9FF"/>
<path d="M186.921 174.662C187.796 173.777 189.212 173.779 190.084 174.668L225.414 210.69C230.209 215.578 230.194 223.489 225.38 228.359C220.566 233.227 212.777 233.212 207.982 228.323L172.652 192.302C171.781 191.413 171.783 189.975 172.658 189.089L186.921 174.662Z" fill="#FFAD00"/>
<defs>
<linearGradient id="paint0_linear_1924_275" x1="24" y1="120" x2="121.977" y2="26.0625" gradientUnits="userSpaceOnUse">
<stop stop-color="#229FAD"/>
<stop offset="1" stop-color="#49BAC8"/>
</linearGradient>
<linearGradient id="paint1_linear_1924_275" x1="24" y1="232" x2="121.977" y2="138.062" gradientUnits="userSpaceOnUse">
<stop stop-color="#229FAD"/>
<stop offset="1" stop-color="#49BAC8"/>
</linearGradient>
<linearGradient id="paint2_linear_1924_275" x1="136" y1="120" x2="233.977" y2="26.0625" gradientUnits="userSpaceOnUse">
<stop stop-color="#229FAD"/>
<stop offset="1" stop-color="#49BAC8"/>
</linearGradient>
<linearGradient id="paint3_linear_1924_275" x1="173" y1="83" x2="83" y2="173" gradientUnits="userSpaceOnUse">
<stop stop-color="#CF7DFF"/>
<stop offset="1" stop-color="#BE6DEE"/>
</linearGradient>
</defs>
</svg>
