<svg width="256" height="256" viewBox="0 0 256 256" fill="none" xmlns="http://www.w3.org/2000/svg">
<rect x="8" y="40" width="240" height="176" rx="16" fill="url(#paint0_linear_4586_385)"/>
<circle cx="76" cy="128" r="52" fill="#63D0DF"/>
<path d="M74.081 156C73.5684 156 73.107 155.813 72.6969 155.44C72.338 155.067 72.1586 154.587 72.1586 154V115.92L61.6238 124.32C61.1624 124.693 60.6754 124.827 60.1627 124.72C59.7013 124.613 59.2912 124.32 58.9324 123.84L54.3955 117.68C54.0879 117.2 53.9597 116.693 54.011 116.16C54.1135 115.573 54.4211 115.12 54.9337 114.8L72.62 100.56C72.9276 100.347 73.2095 100.213 73.4658 100.16C73.7734 100.053 74.1066 100 74.4655 100H84.0776C84.5902 100 85.026 100.187 85.3848 100.56C85.7949 100.933 86 101.413 86 102V154C86 154.587 85.7949 155.067 85.3848 155.44C85.026 155.813 84.5902 156 84.0776 156H74.081Z" fill="#161616"/>
<path d="M160.025 156C159.454 156 158.96 155.816 158.545 155.449C158.182 155.082 158 154.61 158 154.034V148.449C158 148.082 158.104 147.532 158.312 146.798C158.519 146.011 159.064 145.277 159.947 144.596L168.046 136.573C172.199 133.375 175.6 130.674 178.248 128.472C180.947 126.217 182.946 124.225 184.244 122.494C185.542 120.764 186.191 119.139 186.191 117.618C186.191 115.835 185.724 114.367 184.789 113.213C183.907 112.007 182.349 111.404 180.117 111.404C178.611 111.404 177.339 111.745 176.301 112.427C175.314 113.056 174.562 113.895 174.042 114.944C173.523 115.993 173.16 117.067 172.952 118.169C172.745 118.85 172.381 119.322 171.862 119.584C171.395 119.846 170.876 119.978 170.304 119.978H160.57C160.103 119.978 159.713 119.82 159.402 119.506C159.09 119.191 158.935 118.798 158.935 118.326C158.986 115.809 159.506 113.449 160.492 111.247C161.53 109.045 162.958 107.105 164.775 105.427C166.644 103.697 168.851 102.36 171.395 101.416C173.991 100.472 176.898 100 180.117 100C184.53 100 188.268 100.708 191.331 102.124C194.446 103.539 196.808 105.532 198.418 108.101C200.027 110.618 200.832 113.581 200.832 116.989C200.832 119.558 200.261 121.97 199.119 124.225C198.028 126.427 196.445 128.551 194.368 130.596C192.343 132.588 189.929 134.659 187.126 136.809L179.961 144.124H199.975C200.546 144.124 201.014 144.307 201.377 144.674C201.792 145.041 202 145.513 202 146.09V154.034C202 154.61 201.792 155.082 201.377 155.449C201.014 155.816 200.546 156 199.975 156H160.025Z" fill="white"/>
<defs>
<linearGradient id="paint0_linear_4586_385" x1="248" y1="40" x2="6.11676" y2="213.373" gradientUnits="userSpaceOnUse">
<stop stop-color="#00717C"/>
<stop offset="1" stop-color="#48658B"/>
</linearGradient>
</defs>
</svg>
